<svg xmlns="http://www.w3.org/2000/svg" viewBox="0 0 31.73 31.73"><path d="M0 29.66h2.537V9.571H0V29.66zM28.549 9.571V.917H15.871v8.654H10.91v20.09h20.82V9.571h-3.181zm-8.926 15.908h-2.447v-2.446h2.447v2.446zm0-4.045h-2.447V18.99h2.447v2.444zm0-3.855h-2.447v-2.446h2.447v2.446zm4.516 7.9h-2.447v-2.446h2.447v2.446zm0-4.045h-2.447V18.99h2.447v2.444zm0-3.855h-2.447v-2.446h2.447v2.446zm4.513 7.9h-2.445v-2.446h2.445v2.446zm0-4.045h-2.445V18.99h2.445v2.444zm0-3.855h-2.445v-2.446h2.445v2.446zm1.506-4.574H14.26V10.84h1.611v1.082h12.678V10.84h1.609v2.165zM3.535 30.813h6.398V7.332H3.535v23.481zm23.33-27.486h-9.029V2.48h9.029v.847zm0 2.256h-9.029v-.844h9.029v.844z"/></svg>