<svg xmlns="http://www.w3.org/2000/svg" viewBox="0 0 511.999 511.999"><path d="M377.782 437.221c-15.345 23.423-34.044 36.185-52.034 36.185a37.7 37.7 0 0 1-13.255-2.408c-10.065-3.767-23.722-13.76-31.585-40.024-6.401-21.396-7.472-49.821-3.067-82.208a18.938 18.938 0 0 0-.134-5.959c-.638-3.427-2.223-6.669-4.683-9.489-4.569-5.238-11.485-8.243-18.957-8.243a7.722 7.722 0 0 1-7.719-7.719 7.722 7.722 0 0 1 7.719-7.719c11.928 0 23.074 4.93 30.586 13.523 2.058 2.357 3.767 4.888 5.105 7.554 3.139 6.195 4.322 13.111 3.376 20.13-4.106 30.226-3.221 56.397 2.563 75.704 4.713 15.746 12.597 26.398 22.199 29.989 14.254 5.321 32.253-5.321 46.981-27.777a7.717 7.717 0 0 1 10.683-2.223c3.56 2.339 4.558 7.123 2.222 10.684z" fill="#34abe0"/><path d="M289.759 330.716l-12.051 12.092c-.638-3.427-2.223-6.669-4.683-9.489-4.569-5.238-11.485-8.243-18.957-8.243a7.722 7.722 0 0 1-7.719-7.719 7.722 7.722 0 0 1 7.719-7.719c11.928 0 23.074 4.93 30.586 13.523a36.124 36.124 0 0 1 5.105 7.555z" fill="#ffdc8d"/><path d="M246.062 374.474c-12.608 0-22.866-10.257-22.866-22.865V343.6c0-4.263 3.455-7.719 7.719-7.719s7.719 3.456 7.719 7.719v8.009c0 4.095 3.331 7.427 7.427 7.427s7.428-3.331 7.428-7.427V7.719c0-4.263 3.455-7.719 7.719-7.719s7.719 3.456 7.719 7.719V351.61c0 12.606-10.258 22.864-22.865 22.864z" fill="#797b89"/><path d="M261.207 183.42c0-11.68-17.376-21.149-38.809-21.149s-38.809 9.469-38.809 21.149c0-11.68-17.376-21.149-38.809-21.149s-38.809 9.469-38.809 21.149c0-85.736 69.502-155.239 155.239-155.239S416.448 97.684 416.448 183.42c0-11.68-17.376-21.149-38.809-21.149s-38.809 9.469-38.809 21.149c0-11.68-17.376-21.149-38.809-21.149-21.438 0-38.814 9.469-38.814 21.149z" fill="#ff525d"/><path d="M260.218 28.187c-42.421 1.081-76.62 70.167-76.62 155.237 0-11.681-17.382-21.149-38.809-21.149-21.437 0-38.819 9.468-38.819 21.149-.002-85.409 68.972-154.702 154.248-155.237z" fill="#ef4152"/><path d="M55.458 511.996c0-10.106-2.027-19.739-5.701-28.507-7.996-19.132-4.343-41.341 10.384-55.944 13.389-13.276 31.821-21.478 52.167-21.478s38.778 8.202 52.168 21.478c14.727 14.604 18.381 36.813 10.384 55.944-3.674 8.768-5.701 18.401-5.701 28.507H55.458z" fill="#e8dbc4"/><path d="M112.308 406.066c-11.969 0-22.816 8.202-30.699 21.478-8.665 14.604-10.816 36.813-6.113 55.944 2.172 8.768 3.355 18.401 3.355 28.507H55.458c0-10.106-2.027-19.739-5.701-28.507-7.996-19.132-4.343-41.341 10.384-55.944 13.389-13.276 31.821-21.478 52.167-21.478z" fill="#d6c8b0"/><g fill="#ffdc8d"><path d="M176.039 280.624l20.516 63.641h-24.318v13.775c0 26.807-21.731 48.54-48.54 48.54h-1.616c-27.701 0-50.156-22.455-50.156-50.155l-14.338-34.471 14.338-53.123 58.633-28.002 31.392 21.091a35.74 35.74 0 0 1 14.089 18.704z"/><path d="M159.462 423.005c-12.813 10.58-29.238 16.94-47.156 16.94s-34.343-6.36-47.156-16.94c12.813-10.58 29.238-16.94 47.156-16.94 17.919.001 34.344 6.361 47.156 16.94z"/></g><path d="M155.174 319.571a7.718 7.718 0 0 1-7.719-7.719v-10.144c0-4.263 3.455-7.719 7.719-7.719s7.719 3.456 7.719 7.719v10.144a7.72 7.72 0 0 1-7.719 7.719z" fill="#494b5b"/><path d="M142.774 374.017c-16.41 0-29.76-13.35-29.76-29.76a7.72 7.72 0 0 1 15.438 0c0 7.898 6.425 14.323 14.323 14.323a7.718 7.718 0 1 1-.001 15.437z" fill="#fff"/><path d="M200.898 217.732H83.831c-23.341 0-42.998 17.434-45.797 40.61L20.292 395.023l74.099 10.293V334.83l-.002.004c-7.179 7.179-18.947 6.977-25.867-.611-6.141-6.734-6.141-17.328 0-24.061 6.92-7.587 18.686-7.791 25.867-.611l.002.004c0-22.491 18.232-40.724 40.724-40.724h14.687c28.219-.002 51.096-22.879 51.096-51.099z" fill="#ffd15c"/><path d="M64.788 258.342c2.799-23.176 22.456-40.61 45.797-40.61H83.83c-23.341 0-42.998 17.434-45.797 40.61L20.291 395.023l28.577 3.969 15.92-140.65z" fill="#edbb4c"/><path d="M132.894 468.091a8.03 8.03 0 0 1-2.954-.586 7.62 7.62 0 0 1-2.501-1.677 7.62 7.62 0 0 1-.967-1.173 7.103 7.103 0 0 1-.7-1.328 7.26 7.26 0 0 1-.443-1.441 7.543 7.543 0 0 1 0-3.026 7.26 7.26 0 0 1 .443-1.441c.185-.463.422-.916.7-1.328a7.62 7.62 0 0 1 .967-1.173 7.62 7.62 0 0 1 3.942-2.109 7.486 7.486 0 0 1 3.026 0 8.03 8.03 0 0 1 1.441.432 7.62 7.62 0 0 1 2.501 1.677 7.729 7.729 0 0 1 2.264 5.454 8.03 8.03 0 0 1-.586 2.954 7.62 7.62 0 0 1-1.677 2.501 7.62 7.62 0 0 1-3.942 2.109 7.504 7.504 0 0 1-1.514.155zm0 25.729a8.334 8.334 0 0 1-1.513-.144 8.876 8.876 0 0 1-1.441-.443 7.62 7.62 0 0 1-2.501-1.677 7.171 7.171 0 0 1-.967-1.173 7.103 7.103 0 0 1-.7-1.328 7.063 7.063 0 0 1-.443-1.441c-.103-.504-.154-1.009-.154-1.513s.051-1.009.154-1.503c.093-.494.247-.988.443-1.451.185-.463.422-.916.7-1.328a7.62 7.62 0 0 1 .967-1.173c.35-.36.751-.679 1.173-.957a7.115 7.115 0 0 1 1.328-.71 7.26 7.26 0 0 1 1.441-.443 7.486 7.486 0 0 1 3.026 0 7.26 7.26 0 0 1 1.441.443c.463.185.916.432 1.328.71.422.278.823.597 1.173.957a7.747 7.747 0 0 1 2.264 5.454c0 .504-.051 1.009-.154 1.513a7.793 7.793 0 0 1-.432 1.441 7.62 7.62 0 0 1-1.677 2.501 7.62 7.62 0 0 1-2.501 1.677c-.463.185-.957.34-1.441.443a8.283 8.283 0 0 1-1.514.145z" fill="#fff"/><path d="M367.424 268.652l-24.318 75.436h24.318v13.775c0 26.807 21.731 48.54 48.54 48.54h1.616c27.701 0 50.156-22.455 50.156-50.155v-87.595l-58.633-28.002-41.679 28.001z" fill="#ffdc8d"/><path d="M405.534 405.274a48.299 48.299 0 0 0 10.425 1.132h1.616c27.705 0 50.161-22.456 50.161-50.161v-87.591l-22.641-10.816v98.407c-.001 24.072-16.951 44.172-39.561 49.029z" fill="#e8c57e"/><path d="M421.036 217.742c28.116 0 50.91 22.793 50.91 50.91v39.842c-22.004 0-39.842-17.838-39.842-39.842h-64.556c-28.116 0-50.91-22.793-50.91-50.91h104.398z" fill="#f4a14e"/><path d="M443.129 268.652c0-28.116-22.793-50.91-50.91-50.91h28.816c28.116 0 50.91 22.793 50.91 50.91v39.842c-11.337 0-21.561-4.743-28.816-12.345v-27.497z" fill="#e28d40"/><path d="M456.527 313.501c6.982-6.982 18.301-6.982 25.283 0 6.982 6.982 6.982 18.301 0 25.283-6.982 6.982-18.301 6.982-25.283 0" fill="#e8c57e"/><path d="M391.486 374.354c16.41 0 29.76-13.35 29.76-29.76a7.72 7.72 0 0 0-15.438 0c0 7.898-6.425 14.323-14.323 14.323a7.72 7.72 0 1 0 .001 15.437z" fill="#fff"/><path d="M389.635 319.394a7.72 7.72 0 0 0 7.719-7.719v-10.144a7.72 7.72 0 0 0-15.438 0v10.144a7.72 7.72 0 0 0 7.719 7.719z" fill="#494b5b"/><path d="M491.708 480.528c0 6.72-.895 17.743-2.573 31.471H346.022c-1.678-13.729-2.573-24.751-2.573-31.471 0-40.939 33.19-74.119 74.13-74.119s74.129 33.18 74.129 74.119z" fill="#34abe0"/><path d="M457.571 480.526c0 6.68-.474 17.606-1.368 31.206h32.964c1.658-13.599 2.541-24.526 2.541-31.206 0-40.939-33.19-74.119-74.13-74.119 22.085-.001 39.993 33.179 39.993 74.119z" fill="#279fc9"/><path d="M462.111 421.267c-12.401-9.334-27.818-14.861-44.531-14.861l23.032 45.159 21.499-30.298zm-89.073 0v.01l21.509 30.288 23.032-45.159c-16.713 0-32.139 5.527-44.541 14.861z" fill="#78caef"/><path d="M418.273 466.397c6.983 0 10.343-9.005 5.039-13.565-2.603-2.237-6.472-2.477-9.33-.575-2.458 1.635-3.77 4.636-3.345 7.552.545 3.734 3.867 6.588 7.636 6.588z" fill="#fff"/></svg>