<?xml version="1.0" encoding="utf-8"?>
<!-- Generator: Adobe Illustrator 18.0.0, SVG Export Plug-In . SVG Version: 6.00 Build 0)  -->
<!DOCTYPE svg PUBLIC "-//W3C//DTD SVG 1.1//EN" "http://www.w3.org/Graphics/SVG/1.1/DTD/svg11.dtd">
<svg version="1.1" id="Layer_1" xmlns="http://www.w3.org/2000/svg" xmlns:xlink="http://www.w3.org/1999/xlink" x="0px" y="0px"
	 viewBox="0 0 356.2 156.8" enable-background="new 0 0 356.2 156.8" xml:space="preserve">
<g id="XMLID_1_">
	<g>
		<polygon fill="#373D61" points="169.6,17.1 207.1,60.4 177.6,60.4 154.1,32.8 31.7,156.8 0,156.8 139.3,15.7 154.5,0.3 154.8,0.1 
			154.8,0 155.5,0.8 		"/>
	</g>
	<g>
	</g>
</g>
<g id="XMLID_3_">
	<g>
		<polygon fill="#D63634" points="177.6,85.9 177.6,105.8 153.1,79.8 76.9,156.8 57,156.8 154.2,58.9 		"/>
	</g>
	<g>
	</g>
</g>
<g id="XMLID_2_">
	<g>
		<polygon fill="#373D61" points="177.6,121.4 177.6,132.4 154,109.5 107,156.8 95.9,156.8 148.3,103.9 153.9,98.1 159.7,103.8 		
			"/>
	</g>
	<g>
	</g>
</g>
<polygon fill="#FEFEFE" points="154.2,58.9 177.6,85.9 177.6,60.4 154.1,32.7 31.7,156.8 57,156.8 "/>
<polygon fill="#FEFEFE" points="153.1,79.8 76.9,156.8 95.9,156.8 153.9,98.2 177.6,121.5 177.6,105.7 "/>
<path fill="#FFE000" d="M159.7,103.8"/>
<text transform="matrix(1 0 0 1 225.6288 138.5843)"><tspan x="0" y="0" fill="#D63634" stroke="#373D61" stroke-linecap="round" stroke-miterlimit="10" font-family="'Sunset-Serial-Medium-Regular'" font-size="34.3435" letter-spacing="-1">SUPPLY</tspan><tspan x="129.8" y="0" fill="#1FEA71" stroke="#3F3F3F" stroke-miterlimit="10" font-family="'Sunset-Serial-Medium-Regular'" font-size="34.3435"> </tspan></text>
<text transform="matrix(1 0 0 1 185.8922 88.9176)"><tspan x="0" y="0" fill="#D63634" stroke="#373D61" stroke-linecap="round" stroke-miterlimit="10" font-family="'Sunset-Serial-Medium-Regular'" font-size="34.3435" letter-spacing="-1">R</tspan><tspan x="23.5" y="0" fill="#1FEA71" stroke="#3F3F3F" stroke-miterlimit="10" font-family="'Sunset-Serial-Medium-Regular'" font-size="34.3435"> </tspan></text>
<text transform="matrix(1 0 0 1 186.8886 153.2509)"><tspan x="0" y="0" fill="#D63634" stroke="#373D61" stroke-linecap="round" stroke-miterlimit="10" font-family="'Sunset-Serial-Medium-Regular'" font-size="34.3435" letter-spacing="-1">S</tspan><tspan x="21.5" y="0" fill="#1FEA71" stroke="#3F3F3F" stroke-miterlimit="10" font-family="'Sunset-Serial-Medium-Regular'" font-size="34.3435"> </tspan></text>
<path fill="#D63634" stroke="#373D61" stroke-miterlimit="10" d="M210.7,109.1c1.6,3.8,0.7,6.2-3,8c-4.2,2.1-8.6,2.3-13,1
	c-4.6-1.3-7.3-4.5-7.4-8.3c-0.1-3.7,2-6,6.9-7.7c0.9-5,5.2-7.3,9.9-5.2c1.1,0.5,2.2,1.9,2.5,3c0.2,0.7-1.1,2.5-1.8,2.6
	c-1.2,0.2-2.5-0.7-3.7-1.1c-0.2-0.1-0.3-0.3-1-0.2c0.6,1,1.1,2,2.1,3.5c-1.2,0.2-2.3,0.4-3.4,0.6c-0.7,0.1-1.7,0.1-2,0.5
	c-1.4,2.3-0.9,4.6,0.4,6.8c1.2,2,3,2.8,5.3,2.4c0.8-0.1,1.7-0.6,2.2-1.2c0.4-0.5,0.4-1.6,0.2-2.2c-0.2-0.4-1.2-0.7-1.8-0.7
	c-0.7,0-1.3,0.3-2.1,0.5c-0.9-2.1,0.2-3.2,1.7-4c2.1-1,4.3-1.8,6.4-2.7c0.7-0.3,1.6-0.5,2.1-1c0.6-0.7,1-1.7,1.4-2.5
	c-0.8-0.2-1.6-0.3-2.4-0.5c-0.2-0.1-0.4-0.1-0.7-0.2c0.4-2.3,1.7-3.3,4.1-3.2c2.3,0,4.1,1.6,4.3,3.7c0.3,2.8-1.2,4.7-3.4,6.1
	C213.4,107.9,212.1,108.4,210.7,109.1z"/>
</svg>
