<?xml version="1.0" encoding="iso-8859-1"?>
<!-- Generator: Adobe Illustrator 19.0.0, SVG Export Plug-In . SVG Version: 6.00 Build 0)  -->
<svg version="1.1" id="Capa_1" xmlns="http://www.w3.org/2000/svg" xmlns:xlink="http://www.w3.org/1999/xlink" x="0px" y="0px"
	 viewBox="0 0 511.999 511.999" style="enable-background:new 0 0 511.999 511.999;" xml:space="preserve">
<path style="fill:#34ABE0;" d="M377.782,437.221c-15.345,23.423-34.044,36.185-52.034,36.185c-4.487,0-8.923-0.792-13.255-2.408
	c-10.065-3.767-23.722-13.76-31.585-40.024c-6.401-21.396-7.472-49.821-3.067-82.208c0.268-2.007,0.226-4.014-0.134-5.959
	c-0.638-3.427-2.223-6.669-4.683-9.489c-4.569-5.238-11.485-8.243-18.957-8.243c-4.261,0-7.719-3.458-7.719-7.719
	c0-4.261,3.458-7.719,7.719-7.719c11.928,0,23.074,4.93,30.586,13.523c2.058,2.357,3.767,4.888,5.105,7.554
	c3.139,6.195,4.322,13.111,3.376,20.13c-4.106,30.226-3.221,56.397,2.563,75.704c4.713,15.746,12.597,26.398,22.199,29.989
	c14.254,5.321,32.253-5.321,46.981-27.777c2.336-3.561,7.111-4.559,10.683-2.223C379.12,428.876,380.118,433.66,377.782,437.221z"/>
<path style="fill:#FFDC8D;" d="M289.759,330.716l-12.051,12.092c-0.638-3.427-2.223-6.669-4.683-9.489
	c-4.569-5.238-11.485-8.243-18.957-8.243c-4.261,0-7.719-3.458-7.719-7.719c0-4.261,3.458-7.719,7.719-7.719
	c11.928,0,23.074,4.93,30.586,13.523C286.712,325.517,288.421,328.05,289.759,330.716z"/>
<path style="fill:#797B89;" d="M246.062,374.474c-12.608,0-22.866-10.257-22.866-22.865v-8.009c0-4.263,3.455-7.719,7.719-7.719
	s7.719,3.456,7.719,7.719v8.009c0,4.095,3.331,7.427,7.427,7.427s7.428-3.331,7.428-7.427V7.719c0-4.263,3.455-7.719,7.719-7.719
	s7.719,3.456,7.719,7.719v343.891C268.927,364.216,258.669,374.474,246.062,374.474z"/>
<path style="fill:#FF525D;" d="M261.207,183.42c0-11.68-17.376-21.149-38.809-21.149s-38.809,9.469-38.809,21.149
	c0-11.68-17.376-21.149-38.809-21.149s-38.809,9.469-38.809,21.149c0-85.736,69.502-155.239,155.239-155.239
	S416.448,97.684,416.448,183.42c0-11.68-17.376-21.149-38.809-21.149s-38.809,9.469-38.809,21.149
	c0-11.68-17.376-21.149-38.809-21.149C278.583,162.271,261.207,171.74,261.207,183.42z"/>
<path style="fill:#EF4152;" d="M260.218,28.187c-42.421,1.081-76.62,70.167-76.62,155.237c0-11.681-17.382-21.149-38.809-21.149
	c-21.437,0-38.819,9.468-38.819,21.149C105.968,98.015,174.942,28.722,260.218,28.187z"/>
<path style="fill:#E8DBC4;" d="M55.458,511.996c0-10.106-2.027-19.739-5.701-28.507c-7.996-19.132-4.343-41.341,10.384-55.944
	c13.389-13.276,31.821-21.478,52.167-21.478c20.346,0,38.778,8.202,52.168,21.478c14.727,14.604,18.381,36.813,10.384,55.944
	c-3.674,8.768-5.701,18.401-5.701,28.507H55.458z"/>
<path style="fill:#D6C8B0;" d="M112.308,406.066c-11.969,0-22.816,8.202-30.699,21.478c-8.665,14.604-10.816,36.813-6.113,55.944
	c2.172,8.768,3.355,18.401,3.355,28.507H55.458c0-10.106-2.027-19.739-5.701-28.507c-7.996-19.132-4.343-41.341,10.384-55.944
	C73.53,414.268,91.962,406.066,112.308,406.066z"/>
<g>
	<path style="fill:#FFDC8D;" d="M176.039,280.624l20.516,63.641h-24.318v13.775c0,26.807-21.731,48.54-48.54,48.54h-1.616
		c-27.701,0-50.156-22.455-50.156-50.155l-14.338-34.471l14.338-53.123l58.633-28.002l31.392,21.091
		C168.615,266.396,173.576,272.985,176.039,280.624z"/>
	<path style="fill:#FFDC8D;" d="M159.462,423.005c-12.813,10.58-29.238,16.94-47.156,16.94s-34.343-6.36-47.156-16.94
		c12.813-10.58,29.238-16.94,47.156-16.94C130.225,406.066,146.65,412.426,159.462,423.005z"/>
</g>
<path style="fill:#494B5B;" d="M155.174,319.571c-4.264,0-7.719-3.456-7.719-7.719v-10.144c0-4.263,3.455-7.719,7.719-7.719
	s7.719,3.456,7.719,7.719v10.144C162.892,316.115,159.438,319.571,155.174,319.571z"/>
<path style="fill:#FFFFFF;" d="M142.774,374.017c-16.41,0-29.76-13.35-29.76-29.76c0-4.263,3.456-7.719,7.719-7.719
	c4.263,0,7.719,3.456,7.719,7.719c0,7.898,6.425,14.323,14.323,14.323c4.264,0,7.719,3.456,7.719,7.719
	S147.037,374.017,142.774,374.017z"/>
<path style="fill:#FFD15C;" d="M200.898,217.732H83.831c-23.341,0-42.998,17.434-45.797,40.61L20.292,395.023l74.099,10.293v-70.486
	l-0.002,0.004c-7.179,7.179-18.947,6.977-25.867-0.611c-6.141-6.734-6.141-17.328,0-24.061c6.92-7.587,18.686-7.791,25.867-0.611
	l0.002,0.004l0,0c0-22.491,18.232-40.724,40.724-40.724h14.687C178.021,268.829,200.898,245.952,200.898,217.732L200.898,217.732z"
	/>
<path style="fill:#EDBB4C;" d="M64.788,258.342c2.799-23.176,22.456-40.61,45.797-40.61c-9.434,0-26.755,0-26.755,0
	c-23.341,0-42.998,17.434-45.797,40.61L20.291,395.023l28.577,3.969L64.788,258.342z"/>
<g>
	<path style="fill:#FFFFFF;" d="M132.894,468.091c-0.504,0-1.009-0.051-1.513-0.154c-0.484-0.093-0.978-0.247-1.441-0.432
		c-0.463-0.196-0.916-0.432-1.328-0.71c-0.422-0.288-0.823-0.607-1.173-0.967c-0.36-0.35-0.679-0.751-0.967-1.173
		c-0.278-0.412-0.515-0.865-0.7-1.328c-0.196-0.463-0.35-0.957-0.443-1.441c-0.103-0.504-0.154-1.009-0.154-1.513
		s0.051-1.009,0.154-1.513c0.093-0.484,0.247-0.978,0.443-1.441c0.185-0.463,0.422-0.916,0.7-1.328
		c0.288-0.422,0.607-0.823,0.967-1.173c0.35-0.36,0.751-0.679,1.173-0.967c0.412-0.278,0.864-0.515,1.328-0.71
		c0.463-0.185,0.957-0.34,1.441-0.432c0.998-0.206,2.027-0.206,3.026,0c0.484,0.093,0.978,0.247,1.441,0.432
		c0.463,0.196,0.916,0.432,1.328,0.71c0.422,0.288,0.823,0.607,1.173,0.967c1.441,1.431,2.264,3.417,2.264,5.454
		c0,0.504-0.051,1.009-0.154,1.513c-0.093,0.484-0.247,0.978-0.432,1.441c-0.195,0.463-0.432,0.916-0.71,1.328
		c-0.288,0.422-0.607,0.823-0.967,1.173c-0.35,0.36-0.751,0.679-1.173,0.967c-0.412,0.278-0.864,0.515-1.328,0.71
		c-0.463,0.185-0.957,0.34-1.441,0.432C133.902,468.04,133.397,468.091,132.894,468.091z"/>
	<path style="fill:#FFFFFF;" d="M132.894,493.82c-0.504,0-1.009-0.051-1.513-0.144c-0.484-0.103-0.978-0.257-1.441-0.443
		c-0.463-0.196-0.916-0.432-1.328-0.71c-0.422-0.288-0.823-0.607-1.173-0.967c-0.36-0.35-0.679-0.741-0.967-1.173
		c-0.278-0.412-0.515-0.865-0.7-1.328c-0.196-0.463-0.35-0.947-0.443-1.441c-0.103-0.504-0.154-1.009-0.154-1.513
		s0.051-1.009,0.154-1.503c0.093-0.494,0.247-0.988,0.443-1.451c0.185-0.463,0.422-0.916,0.7-1.328
		c0.288-0.422,0.607-0.823,0.967-1.173c0.35-0.36,0.751-0.679,1.173-0.957c0.412-0.278,0.864-0.525,1.328-0.71
		c0.463-0.196,0.957-0.35,1.441-0.443c0.998-0.206,2.027-0.206,3.026,0c0.484,0.093,0.978,0.247,1.441,0.443
		c0.463,0.185,0.916,0.432,1.328,0.71c0.422,0.278,0.823,0.597,1.173,0.957c1.441,1.431,2.264,3.427,2.264,5.454
		c0,0.504-0.051,1.009-0.154,1.513c-0.093,0.494-0.247,0.978-0.432,1.441c-0.195,0.463-0.432,0.916-0.71,1.328
		c-0.288,0.422-0.607,0.823-0.967,1.173c-0.35,0.36-0.751,0.679-1.173,0.967c-0.412,0.278-0.864,0.515-1.328,0.71
		c-0.463,0.185-0.957,0.34-1.441,0.443C133.902,493.769,133.397,493.82,132.894,493.82z"/>
</g>
<path style="fill:#FFDC8D;" d="M367.424,268.652l-24.318,75.436h24.318v13.775c0,26.807,21.731,48.54,48.54,48.54h1.616
	c27.701,0,50.156-22.455,50.156-50.155v-87.595l-58.633-28.002L367.424,268.652z"/>
<path style="fill:#E8C57E;" d="M405.534,405.274c3.355,0.741,6.844,1.132,10.425,1.132h1.616c27.705,0,50.161-22.456,50.161-50.161
	v-87.591l-22.641-10.816v98.407C445.094,380.317,428.144,400.417,405.534,405.274z"/>
<path style="fill:#F4A14E;" d="M421.036,217.742c28.116,0,50.91,22.793,50.91,50.91v39.842l0,0
	c-22.004,0-39.842-17.838-39.842-39.842l0,0h-64.556c-28.116,0-50.91-22.793-50.91-50.91H421.036z"/>
<path style="fill:#E28D40;" d="M443.129,268.652c0-28.116-22.793-50.91-50.91-50.91h28.816c28.116,0,50.91,22.793,50.91,50.91
	v39.842c-11.337,0-21.561-4.743-28.816-12.345V268.652z"/>
<path style="fill:#E8C57E;" d="M456.527,313.501c6.982-6.982,18.301-6.982,25.283,0c6.982,6.982,6.982,18.301,0,25.283
	c-6.982,6.982-18.301,6.982-25.283,0"/>
<path style="fill:#FFFFFF;" d="M391.486,374.354c16.41,0,29.76-13.35,29.76-29.76c0-4.263-3.456-7.719-7.719-7.719
	s-7.719,3.456-7.719,7.719c0,7.898-6.425,14.323-14.323,14.323c-4.263,0-7.719,3.456-7.719,7.719
	C383.767,370.898,387.223,374.354,391.486,374.354z"/>
<path style="fill:#494B5B;" d="M389.635,319.394c4.263,0,7.719-3.456,7.719-7.719v-10.144c0-4.263-3.456-7.719-7.719-7.719
	s-7.719,3.456-7.719,7.719v10.144C381.917,315.938,385.373,319.394,389.635,319.394z"/>
<path style="fill:#34ABE0;" d="M491.708,480.528c0,6.72-0.895,17.743-2.573,31.471H346.022c-1.678-13.729-2.573-24.751-2.573-31.471
	c0-40.939,33.19-74.119,74.13-74.119S491.708,439.589,491.708,480.528z"/>
<path style="fill:#279FC9;" d="M457.571,480.526c0,6.68-0.474,17.606-1.368,31.206h32.964c1.658-13.599,2.541-24.526,2.541-31.206
	c0-40.939-33.19-74.119-74.13-74.119C439.663,406.406,457.571,439.586,457.571,480.526z"/>
<g>
	<path style="fill:#78CAEF;" d="M462.111,421.267c-12.401-9.334-27.818-14.861-44.531-14.861l23.032,45.159L462.111,421.267z"/>
	<path style="fill:#78CAEF;" d="M373.038,421.267v0.01l21.509,30.288l23.032-45.159C400.866,406.406,385.44,411.933,373.038,421.267
		z"/>
</g>
<path style="fill:#FFFFFF;" d="M418.273,466.397c6.983,0,10.343-9.005,5.039-13.565c-2.603-2.237-6.472-2.477-9.33-0.575
	c-2.458,1.635-3.77,4.636-3.345,7.552C411.182,463.543,414.504,466.397,418.273,466.397z"/>
<g>
</g>
<g>
</g>
<g>
</g>
<g>
</g>
<g>
</g>
<g>
</g>
<g>
</g>
<g>
</g>
<g>
</g>
<g>
</g>
<g>
</g>
<g>
</g>
<g>
</g>
<g>
</g>
<g>
</g>
</svg>
