<?xml version="1.0" standalone="no"?>
<!DOCTYPE svg PUBLIC "-//W3C//DTD SVG 20010904//EN"
 "http://www.w3.org/TR/2001/REC-SVG-20010904/DTD/svg10.dtd">
<svg version="1.0" xmlns="http://www.w3.org/2000/svg"
 width="260.000000pt" height="260.000000pt" viewBox="0 0 260.000000 260.000000"
 preserveAspectRatio="xMidYMid meet">
<metadata>
Created by potrace 1.11, written by Peter Selinger 2001-2013
</metadata>
<g transform="translate(0.000000,260.000000) scale(0.100000,-0.100000)"
fill="#000000" stroke="none">
<path d="M654 1304 c-275 -278 -500 -508 -502 -512 -1 -4 155 -7 347 -7 l350
0 152 153 152 153 35 -33 c20 -18 53 -50 73 -70 21 -21 41 -38 43 -38 3 0 7
105 8 232 l3 233 80 2 c44 1 86 2 93 2 11 1 -100 140 -166 210 -7 7 -45 51
-84 97 -38 46 -74 84 -78 84 -4 0 -232 -228 -506 -506z"/>
<path d="M1365 1390 c-3 -5 -1 -11 4 -14 11 -7 9 -116 -2 -133 -5 -9 -3 -13 7
-14 51 -4 51 -4 48 28 -2 17 1 34 7 37 13 8 34 -31 27 -50 -6 -14 -3 -16 39
-18 28 -1 29 5 6 53 -12 26 -13 35 -3 38 19 7 15 61 -5 71 -23 12 -121 13
-128 2z m105 -38 c0 -13 -23 -32 -37 -32 -13 0 -18 41 -7 53 8 7 44 -10 44
-21z"/>
<path d="M1408 1152 c-41 -41 -47 -66 -24 -98 11 -15 26 -19 70 -19 56 0 75 9
80 38 1 9 12 28 25 41 28 30 24 60 -8 64 -26 4 -47 -18 -28 -30 7 -4 3 -10
-13 -16 -14 -5 -29 -7 -35 -4 -5 4 -2 8 8 10 21 4 23 38 1 46 -28 11 -38 6
-76 -32z m52 -52 c-9 -16 -8 -20 5 -20 10 0 13 -5 9 -12 -5 -8 -13 -4 -26 11
-19 25 -16 41 8 41 12 0 12 -4 4 -20z"/>
<path d="M1670 1070 c-15 -3 -29 -17 -35 -34 -8 -24 -6 -31 14 -47 13 -10 31
-19 41 -19 10 0 23 -6 29 -14 10 -12 9 -17 -6 -24 -21 -11 -43 -5 -60 17 -11
14 -14 14 -23 1 -26 -38 72 -67 118 -34 46 32 20 82 -51 98 -16 4 -27 12 -24
19 6 19 37 20 57 2 10 -9 21 -12 24 -7 8 14 -3 42 -18 43 -6 0 -18 2 -26 3 -8
2 -26 0 -40 -4z"/>
<path d="M1932 1072 c-46 -3 -53 -6 -46 -20 10 -24 14 -73 9 -99 -6 -26 -40
-39 -60 -23 -18 15 -21 120 -4 120 5 0 7 5 4 10 -3 6 -19 10 -34 10 -27 0 -28
0 -24 -57 2 -32 6 -68 8 -80 10 -46 117 -46 134 0 4 12 7 43 6 70 -2 32 1 47
9 44 10 -3 14 -92 5 -127 -3 -11 5 -16 28 -18 31 -3 32 -2 27 26 -5 26 -3 30
23 36 15 4 36 15 46 23 14 13 17 14 18 2 2 -22 2 -22 -4 -56 -6 -32 -6 -33 29
-33 30 0 35 3 29 18 -12 31 -10 34 24 46 18 7 40 21 48 31 14 18 15 15 11 -37
l-5 -58 98 0 98 0 -6 34 c-4 28 1 44 26 81 17 25 31 48 31 51 0 2 -13 4 -29 4
-23 0 -28 -4 -25 -17 3 -10 -1 -27 -9 -37 -14 -19 -15 -19 -28 5 -7 13 -13 30
-14 38 0 8 -10 15 -22 16 -43 3 -46 -10 -13 -58 34 -51 44 -83 29 -93 -5 -3
-9 -2 -8 3 3 19 -3 21 -27 8 -15 -7 -32 -11 -38 -9 -14 5 -16 124 -3 124 5 0
4 6 -2 14 -9 10 -20 12 -42 6 -16 -5 -41 -5 -56 -1 -28 7 -75 6 -98 -3 -6 -2
-29 -1 -51 3 -21 3 -63 5 -92 3z m96 -34 c14 -14 -2 -48 -23 -48 -10 0 -15 10
-15 30 0 31 17 39 38 18z m130 3 c20 -12 10 -46 -13 -46 -19 0 -21 7 -16 45 1
12 11 13 29 1z"/>
<path d="M1398 968 c-39 -32 -21 -83 32 -93 29 -6 44 -20 36 -34 -10 -16 -41
-13 -56 4 -17 21 -42 19 -38 -2 9 -49 111 -51 135 -4 16 34 6 50 -44 72 -44
19 -53 40 -19 45 9 1 20 -4 23 -12 8 -21 33 -17 33 5 0 31 -70 44 -102 19z"/>
</g>
</svg>
